Coordinates
version=1
nRows=23
nColumns=23
inDegrees=yes

Units are S.I. units (second, meters, Newtons, ...)
Angles are in degrees.

endheader
time	thorax_tilt	thorax_list	thorax_rotation	thorax_tx	thorax_ty	thorax_tz	sternoclavicular_r2	sternoclavicular_r3	unrotscap_r3	unrotscap_r2	acromioclavicular_r2	acromioclavicular_r3	acromioclavicular_r1	unrothum_r1	unrothum_r3	unrothum_r2	elv_angle	shoulder_elv	shoulder1_r2	shoulder_rot	elbow_flexion	pro_sup
      2.42800000	     -6.60061512	      0.70408940	    -14.76434286	     -0.38794673	      1.57621032	      0.07337744	     -2.68877686	      1.13707236	     -1.13824936	      2.68705901	     -0.54402981	      4.39612002	      1.97558013	     -1.97756470	     -4.39779061	      0.54421020	      6.98098593	     11.10434494	     -6.98119114	     29.90304855	     78.00524356	     11.44766951
      2.43200000	     -6.44237682	      0.73516311	    -14.67005788	     -0.38853144	      1.57680989	      0.07309736	     -2.69580183	      1.13996892	     -1.14135905	      2.69411460	     -0.54535286	      4.40739810	      1.98076169	     -1.98265318	     -4.40939033	      0.54572085	      6.42147473	     11.13310530	     -6.42158127	     29.89318275	     76.68468804	     11.35985348
      2.43600000	     -6.74180947	      0.78850820	    -14.72504086	     -0.38773870	      1.57596543	      0.07324957	     -2.69577264	      1.14002061	     -1.14124908	      2.69400650	     -0.54543845	      4.40746274	      1.98073489	     -1.98263725	     -4.40920199	      0.54561720	      6.33675758	     11.13284543	     -6.33682685	     29.91916202	     76.49563764	     11.35249799
      2.44000000	     -6.48766692	      0.81674357	    -14.68557156	     -0.38834663	      1.57688035	      0.07309636	     -2.68619962	      1.13585703	     -1.13698705	      2.68470326	     -0.54325338	      4.39194491	      1.97352054	     -1.97562434	     -4.39344085	      0.54389882	      5.75882969	     11.09348264	     -5.75913573	     29.90440612	     74.95454800	     11.26782586
      2.44400000	     -6.78293269	      0.85725838	    -14.73536308	     -0.38759424	      1.57600206	      0.07322345	     -2.68580635	      1.13574400	     -1.13707789	      2.68409018	     -0.54339669	      4.39114660	      1.97342030	     -1.97535057	     -4.39300286	      0.54363682	      5.67509935	     11.09191897	     -5.67519143	     29.93475602	     74.77375702	     11.26142556
      2.44800000	     -3.33952510	      1.06536435	    -12.57306929	     -0.39062479	      1.58093477	      0.07056472	     -3.05027509	      1.28969597	     -1.29182602	      3.04832603	     -0.61743416	      4.98788084	      2.24247510	     -2.24237397	     -4.98877711	      0.61712243	    -16.93317940	     12.59755691	     16.93302323	     28.31727107	     74.92112764	      7.59745393
      2.45200000	     -3.53349400	      1.12162077	    -12.21641585	     -0.39143484	      1.58102004	      0.07017268	     -3.00323494	      1.26983048	     -1.27191331	      3.00141420	     -0.60780286	      4.91087797	      2.20776815	     -2.20788933	     -4.91192450	      0.60776321	    -16.97949052	     12.40330234	     16.97936288	     27.60734884	     73.92170339	      7.81548490
      2.45600000	     -3.78417734	      1.14666167	    -12.25728355	     -0.39073558	      1.58011371	      0.07008901	     -3.01845909	      1.27619052	     -1.27841960	      3.01667540	     -0.61086369	      4.93580400	      2.21905137	     -2.21904078	     -4.93687381	      0.61085713	    -17.00952115	     12.46608067	     17.00945381	     27.59264071	     73.75709616	      7.83866519
      2.46000000	     -3.72423478	      1.25786034	    -12.10637237	     -0.39132687	      1.58080571	      0.07004039	     -3.00826672	      1.27192504	     -1.27401388	      3.00643646	     -0.60877866	      4.91900333	      2.21138845	     -2.21162803	     -4.92015817	      0.60879612	    -17.10331069	     12.42391400	     17.10326274	     27.36976761	     72.46402782	      8.04865017
      2.46400000	     -3.78347900	      1.25635107	    -12.09974861	     -0.39134882	      1.58074856	      0.07006809	     -2.98589289	      1.26209771	     -1.26460585	      2.98340281	     -0.60448603	      4.88170889	      2.19478705	     -2.19498960	     -4.88301772	      0.60391274	    -17.24195599	     12.33009501	     17.24191260	     27.27973728	     71.56497921	      8.29626342
      2.46800000	     -4.01815737	      1.27174362	    -12.14993638	     -0.39061930	      1.57984796	      0.06998185	     -3.00153597	      1.26900962	     -1.27125994	      2.99975618	     -0.60738551	      4.90798548	      2.20652595	     -2.20663923	     -4.90921811	      0.60747313	    -17.27502526	     12.39613699	     17.27505227	     27.28210481	     71.39711260	      8.31699624
      2.47200000	     -3.88812766	      1.35700450	    -12.06679243	     -0.39118313	      1.58063222	      0.07001403	     -2.99369494	      1.26575197	     -1.26788273	      2.99187804	     -0.60579858	      4.89510635	      2.20068165	     -2.20088193	     -4.89634102	      0.60587277	    -17.41086617	     12.36379500	     17.41084911	     27.20960995	     70.03266260	      8.52138047
      2.47600000	     -4.11605953	      1.36767912	    -12.11983888	     -0.39043088	      1.57972112	      0.06998143	     -3.00865619	      1.27195792	     -1.27436726	      3.00693120	     -0.60878845	      4.91960493	      2.21182597	     -2.21185364	     -4.92098051	      0.60896320	    -17.44507354	     12.42581967	     17.44544102	     27.21308399	     69.86332626	      8.54034540
      2.48000000	     -3.96412822	      1.42363724	    -12.05944038	     -0.39099207	      1.58055889	      0.06998910	     -2.99098039	      1.26462683	     -1.26667600	      2.98915059	     -0.60527732	      4.89068695	      2.19855590	     -2.19880266	     -4.89211021	      0.60525100	    -17.60748700	     12.35280204	     17.60746510	     27.15987065	     68.42858570	      8.74444333
      2.48400000	     -4.18920984	      1.43464084	    -12.11274056	     -0.39025945	      1.57967555	      0.06993532	     -3.00466183	      1.27031004	     -1.27262957	      3.00289856	     -0.60798724	      4.91302576	      2.20881658	     -2.20892681	     -4.91442115	      0.60813302	    -17.64388106	     12.40920318	     17.64398656	     27.16593906	     68.26287961	      8.76329512
      2.48800000	     -4.03156944	      1.46544616	    -12.06168491	     -0.39075714	      1.58037771	      0.06997219	     -2.98168002	      1.26090542	     -1.26304155	      2.98011692	     -0.60340951	      4.87576499	      2.19210882	     -2.19241700	     -4.87711517	      0.60354366	    -17.82478575	     12.31525302	     17.82472436	     27.12271798	     66.84854984	      8.96246763
      2.49200000	     -4.25459342	      1.47481952	    -12.11564917	     -0.39006852	      1.57956471	      0.06996595	     -2.99543076	      1.26639425	     -1.26875478	      2.99368359	     -0.60611048	      4.89790137	      2.20204164	     -2.20217616	     -4.89935775	      0.60628324	    -17.86123741	     12.37099928	     17.86140787	     27.12851549	     66.69278000	      8.97950706
      2.49600000	     -4.10413043	      1.49950878	    -12.06622649	     -0.39054491	      1.58029111	      0.07003398	     -2.97065349	      1.25595644	     -1.25817220	      2.96880250	     -0.60107782	      4.85716843	      2.18365037	     -2.18394310	     -4.85869864	      0.60124376	    -18.06044873	     12.26834316	     18.06041795	     27.08999487	     65.29817428	      9.17590853
      2.50000000	     -4.31430929	      1.50276473	    -12.11935815	     -0.38985736	      1.57946008	      0.07001635	     -2.98397839	      1.26143935	     -1.26394276	      2.98226341	     -0.60376651	      4.87912122	      2.19360955	     -2.19378874	     -4.88071881	      0.60399523	    -18.09548200	     12.32411005	     18.09582149	     27.09268933	     65.15466261	      9.19112952
      2.50400000	     -4.53386702	      1.54421585	    -12.15149157	     -0.38919074	      1.57887255	      0.07000346	     -2.99686561	      1.26697865	     -1.26935131	      2.99510527	     -0.60645027	      4.90036451	      2.20317181	     -2.20318068	     -4.90164889	      0.60652642	    -18.13874788	     12.37707465	     18.13864536	     27.10471291	     64.91009929	      9.21186719
      2.50800000	     -4.20841165	      1.59307337	    -12.00863030	     -0.39025348	      1.58015533	      0.06996855	     -2.97896938	      1.25945060	     -1.26170898	      2.97708760	     -0.60276289	      4.87070026	      2.18974062	     -2.19006567	     -4.87232527	      0.60291947	    -18.34107805	     12.30252758	     18.34102346	     27.03051961	     63.13710632	      9.40032810
      2.51200000	     -4.41555079	      1.59579978	    -12.06607484	     -0.38958368	      1.57938971	      0.06993058	     -2.99091876	      1.26446561	     -1.26683052	      2.98912849	     -0.60518887	      4.89040970	      2.19865170	     -2.19886675	     -4.89197806	      0.60536186	    -18.37829314	     12.35227037	     18.37824374	     27.03297425	     62.99611241	      9.41538569
      2.51600000	     -4.26115728	      1.58079618	    -12.03817904	     -0.38997910	      1.58005307	      0.07008110	     -2.95365469	      1.24875266	     -1.25095124	      2.95179729	     -0.59765515	      4.82936242	      2.17111207	     -2.17150310	     -4.83091748	      0.59778776	    -18.62860594	     12.19808547	     18.62853873	     27.00480641	     61.60855234	      9.61931672
